# xmcd
#
# Track frame offsets:
#	150
#	10525
#	20061
#	24442
#	38958
#	51581
#
# Disc length: 787 seconds
#
# Revision: 1
# Processed by: cddbd v1.5.2PL0 Copyright (c) Steve Scherf et al.
# Submitted via: audiograbber 1.83.01
#
DISCID=44031106
DTITLE=MV Bad Teinach - Zavelstein (Jugendkapelle) - Jahreskonzert 2009
DYEAR=2009
DGENRE=
TTITLE0=Drummer Boy March (J)
TTITLE1=Somewhere out there (J+F)
TTITLE2=Wir sind zwei Musikanten (F)
TTITLE3=My Heart will go on
TTITLE4=When the Saints go marching in
TTITLE5=Panther-Tango (Zugabe)
EXTD=Jahreskonzert des MV Bad Teinach - Zavelstein am 14.11.2009 im KoNi-Kultur
EXTD=zentrum von Zavelstein. Aufnahme des Jugendkapelle. Leitung: Gudrun Nehlse
EXTD=n.
EXTT0=
EXTT1=
EXTT2=
EXTT3=
EXTT4=
EXTT5=
PLAYORDER=
